<svg width="171" height="48" viewBox="0 0 171 48" fill="none" xmlns="http://www.w3.org/2000/svg">
<path d="M36.3858 48H11.7212C5.24773 48 0 42.7639 0 36.3049V11.6951C0 5.23605 5.24773 0 11.7212 0H36.3858C42.859 0 48.1071 5.23605 48.1071 11.6951V36.3049C48.1068 42.7639 42.859 48 36.3858 48Z" fill="#1DED98"/>
<path d="M72.9654 15.8837C72.8381 13.7328 72.8381 12.9135 72.8128 12.2218V6.07715H77.8727V24.0005H73.6011L66.1762 14.3474L66.2522 18.2649V24.0005H61.167V6.07715H65.4388L72.9654 15.8837Z" fill="white"/>
<path d="M95.7197 24.0005H81.4805V6.07715H95.3643V10.3276H86.439V12.8876H94.8553V17.0104H86.439V19.7245H95.7197V24.0005Z" fill="white"/>
<path d="M115.093 6.10284V16.1138C115.118 21.4141 111.915 24.3847 106.702 24.3847C101.489 24.3847 98.3105 21.542 98.3105 16.0626V6.10254H103.32V16.0626C103.32 18.8797 104.668 20.0569 106.702 20.0569C108.736 20.0569 110.084 18.8279 110.084 16.1138V6.10284H115.093Z" fill="white"/>
<path d="M134.924 23.9999H129.38L125.236 18.1882H123.481V23.9999H118.446V6.07715H127.143C131.694 6.07715 134.059 9.02123 134.059 12.2474C134.059 14.4495 133.296 16.319 130.295 17.65L134.923 23.6932L134.924 23.9999ZM123.481 10.1229V14.4239H127.193C128.516 14.4239 129.1 13.4258 129.1 12.35C129.1 11.2239 128.465 10.1229 127.143 10.1229H123.481Z" fill="white"/>
<path d="M149.466 21.0558H141.507L140.338 24.0005H134.998L142.983 6.07715H148.068L156.026 24.0005H150.636L149.466 21.0558ZM145.499 11.096L143.21 16.8054H147.763L145.499 11.096Z" fill="white"/>
<path d="M162.482 6.07715V19.6989H171V24.0005H157.447V6.07715H162.482Z" fill="white"/>
<path d="M64.5585 31.6194H59.7178V27.7236H74.0977V31.6194H69.2332V44.4534H64.5585V31.6194Z" fill="#1DED98"/>
<path d="M91.5144 44.4534H86.3418L82.4731 39.0287H80.8359V44.4534H76.1377V27.7236H84.2532C88.5006 27.7236 90.7073 30.4726 90.7073 33.4836C90.7073 35.5387 89.9959 37.2836 87.1955 38.526L91.5141 44.1663L91.5144 44.4534ZM80.8359 31.4998V35.5143H84.3006C85.535 35.5143 86.0804 34.5823 86.0804 33.5788C86.0804 32.5271 85.4879 31.4998 84.2532 31.4998H80.8359Z" fill="#1DED98"/>
<path d="M105.087 41.7051H97.6598L96.5688 44.4534H91.585L99.0361 27.7236H103.782L111.209 44.4534H106.178L105.087 41.7051ZM101.385 32.4081L99.2499 37.7376H103.497L101.385 32.4081Z" fill="#1DED98"/>
<path d="M117.213 27.7236H112.538V44.4534H117.213V27.7236Z" fill="#1DED98"/>
<path d="M131.592 36.8769C131.474 34.8688 131.474 34.1048 131.45 33.4598V27.7236H136.172V44.4534H132.186L125.257 35.4429L125.328 39.0996V44.4534H120.582V27.7236H124.569L131.592 36.8769Z" fill="#1DED98"/>
<path d="M152.829 44.4534H139.541V27.7236H152.497V31.6908H144.168V34.081H152.022V37.9286H144.168V40.4627H152.829V44.4534Z" fill="#1DED98"/>
<path d="M170.864 44.4534H165.691L161.823 39.0287H160.185V44.4534H155.486V27.7236H163.602C167.85 27.7236 170.057 30.4726 170.057 33.4836C170.057 35.5387 169.345 37.2836 166.545 38.526L170.864 44.1663L170.864 44.4534ZM160.186 31.4998V35.5143H163.65C164.884 35.5143 165.43 34.5823 165.43 33.5788C165.43 32.5271 164.837 31.4998 163.603 31.4998H160.186Z" fill="#1DED98"/>
<path d="M20.1794 36.2767L22.037 34.4235L13.1835 25.6502H37.979C38.5104 25.6502 38.9895 25.3313 39.1926 24.8407C39.3962 24.351 39.2838 23.7872 38.9078 23.4124L27.4433 11.9736L25.586 13.8271L34.8074 23.0283H10.0119C9.48089 23.0283 9.00144 23.3472 8.79868 23.8378C8.59474 24.3275 8.70715 24.8913 9.08343 25.2661L20.1794 36.2767Z" fill="#1A1C1E"/>
<path d="M29.2309 10.0127C29.2309 7.1231 26.8831 4.78027 23.987 4.78027C21.0909 4.78027 18.7432 7.1231 18.7432 10.0127C18.7432 12.9024 21.0909 15.2446 23.987 15.2446C26.8831 15.2446 29.2309 12.9024 29.2309 10.0127Z" fill="#1A1C1E"/>
<path d="M26.8766 10.0126C26.8766 8.41977 25.5826 7.12891 23.9865 7.12891C22.3904 7.12891 21.0967 8.42007 21.0967 10.0126C21.0967 11.6051 22.3904 12.8963 23.9865 12.8963C25.5826 12.8963 26.8766 11.6054 26.8766 10.0126Z" fill="white"/>
<path d="M43.2234 24.2241C43.2234 21.3344 40.8756 18.9922 37.9795 18.9922C35.0831 18.9922 32.7354 21.3344 32.7354 24.2241C32.7354 27.1143 35.0831 29.4566 37.9795 29.4566C40.8756 29.4566 43.2234 27.1143 43.2234 24.2241Z" fill="#1A1C1E"/>
<path d="M40.8698 24.2245C40.8698 22.6317 39.5758 21.3408 37.98 21.3408C36.3836 21.3408 35.0898 22.632 35.0898 24.2245C35.0898 25.817 36.3839 27.1082 37.98 27.1082C39.5758 27.1082 40.8698 25.817 40.8698 24.2245Z" fill="white"/>
<path d="M15.3715 24.2241C15.3715 21.3344 13.0237 18.9922 10.1276 18.9922C7.23155 18.9922 4.88379 21.3344 4.88379 24.2241C4.88379 27.1143 7.23155 29.4566 10.1276 29.4566C13.0237 29.4566 15.3715 27.1143 15.3715 24.2241Z" fill="#1A1C1E"/>
<path d="M13.0182 24.2245C13.0182 22.6317 11.7242 21.3408 10.1284 21.3408C8.53202 21.3408 7.23828 22.632 7.23828 24.2245C7.23828 25.817 8.53202 27.1082 10.1284 27.1082C11.7242 27.1082 13.0182 25.817 13.0182 24.2245Z" fill="white"/>
<path d="M29.2309 37.9874C29.2309 35.0977 26.8831 32.7549 23.987 32.7549C21.0909 32.7549 18.7432 35.0977 18.7432 37.9874C18.7432 40.877 21.0909 43.2199 23.987 43.2199C26.8831 43.2199 29.2309 40.8767 29.2309 37.9874Z" fill="#1A1C1E"/>
<path d="M26.8766 37.9882C26.8766 36.3951 25.5826 35.1045 23.9865 35.1045C22.3904 35.1045 21.0967 36.3951 21.0967 37.9882C21.0967 39.581 22.3904 40.8719 23.9865 40.8719C25.5826 40.8719 26.8766 39.5807 26.8766 37.9882Z" fill="white"/>
</svg>
